<svg width="56" height="42" viewBox="0 0 56 42" fill="none" xmlns="http://www.w3.org/2000/svg">
<path d="M50.3768 3.5C50.8376 3.5 51.2794 3.68437 51.6052 4.01256C51.931 4.34075 52.114 4.78587 52.114 5.25V36.75C52.114 37.2141 51.931 37.6592 51.6052 37.9874C51.2794 38.3156 50.8376 38.5 50.3768 38.5H5.2114C4.75068 38.5 4.30883 38.3156 3.98306 37.9874C3.65728 37.6592 3.47426 37.2141 3.47426 36.75V5.25C3.47426 4.78587 3.65728 4.34075 3.98306 4.01256C4.30883 3.68437 4.75068 3.5 5.2114 3.5H50.3768ZM5.2114 0C3.82925 0 2.50371 0.553124 1.52638 1.53769C0.549056 2.52226 0 3.85761 0 5.25L0 36.75C0 38.1424 0.549056 39.4777 1.52638 40.4623C2.50371 41.4469 3.82925 42 5.2114 42H50.3768C51.759 42 53.0845 41.4469 54.0619 40.4623C55.0392 39.4777 55.5882 38.1424 55.5882 36.75V5.25C55.5882 3.85761 55.0392 2.52226 54.0619 1.53769C53.0845 0.553124 51.759 0 50.3768 0H5.2114Z" fill="#272727"/>
<path d="M8.10663 23.1232C8.10663 22.601 8.31405 22.1003 8.68326 21.7311C9.05247 21.3618 9.55323 21.1544 10.0754 21.1544H45.5129C46.035 21.1544 46.5358 21.3618 46.905 21.7311C47.2742 22.1003 47.4816 22.601 47.4816 23.1232C47.4816 23.6453 47.2742 24.1461 46.905 24.5153C46.5358 24.8845 46.035 25.0919 45.5129 25.0919H10.0754C9.55323 25.0919 9.05247 24.8845 8.68326 24.5153C8.31405 24.1461 8.10663 23.6453 8.10663 23.1232ZM8.10663 30.9982C8.10663 30.476 8.31405 29.9753 8.68326 29.6061C9.05247 29.2368 9.55323 29.0294 10.0754 29.0294H33.7004C34.2225 29.0294 34.7233 29.2368 35.0925 29.6061C35.4617 29.9753 35.6691 30.476 35.6691 30.9982C35.6691 31.5203 35.4617 32.0211 35.0925 32.3903C34.7233 32.7595 34.2225 32.9669 33.7004 32.9669H10.0754C9.55323 32.9669 9.05247 32.7595 8.68326 32.3903C8.31405 32.0211 8.10663 31.5203 8.10663 30.9982ZM8.10663 11.3107C8.10663 10.7885 8.31405 10.2878 8.68326 9.91855C9.05247 9.54934 9.55323 9.34192 10.0754 9.34192H45.5129C46.035 9.34192 46.5358 9.54934 46.905 9.91855C47.2742 10.2878 47.4816 10.7885 47.4816 11.3107V15.2482C47.4816 15.7703 47.2742 16.2711 46.905 16.6403C46.5358 17.0095 46.035 17.2169 45.5129 17.2169H10.0754C9.55323 17.2169 9.05247 17.0095 8.68326 16.6403C8.31405 16.2711 8.10663 15.7703 8.10663 15.2482V11.3107Z" fill="#272727"/>
</svg>
