<svg width="37" height="27" viewBox="0 0 37 27" fill="none" xmlns="http://www.w3.org/2000/svg">
<path fill-rule="evenodd" clip-rule="evenodd" d="M10.5714 24.3C10.5714 23.942 10.7107 23.5986 10.9585 23.3454C11.2063 23.0922 11.5424 22.95 11.8929 22.95H35.6786C36.029 22.95 36.3651 23.0922 36.613 23.3454C36.8608 23.5986 37 23.942 37 24.3C37 24.658 36.8608 25.0014 36.613 25.2546C36.3651 25.5078 36.029 25.65 35.6786 25.65H11.8929C11.5424 25.65 11.2063 25.5078 10.9585 25.2546C10.7107 25.0014 10.5714 24.658 10.5714 24.3ZM10.5714 13.5C10.5714 13.142 10.7107 12.7986 10.9585 12.5454C11.2063 12.2922 11.5424 12.15 11.8929 12.15H35.6786C36.029 12.15 36.3651 12.2922 36.613 12.5454C36.8608 12.7986 37 13.142 37 13.5C37 13.858 36.8608 14.2014 36.613 14.4546C36.3651 14.7078 36.029 14.85 35.6786 14.85H11.8929C11.5424 14.85 11.2063 14.7078 10.9585 14.4546C10.7107 14.2014 10.5714 13.858 10.5714 13.5ZM10.5714 2.7C10.5714 2.34196 10.7107 1.99858 10.9585 1.74541C11.2063 1.49223 11.5424 1.35 11.8929 1.35H35.6786C36.029 1.35 36.3651 1.49223 36.613 1.74541C36.8608 1.99858 37 2.34196 37 2.7C37 3.05804 36.8608 3.40142 36.613 3.65459C36.3651 3.90777 36.029 4.05 35.6786 4.05H11.8929C11.5424 4.05 11.2063 3.90777 10.9585 3.65459C10.7107 3.40142 10.5714 3.05804 10.5714 2.7ZM2.64286 5.4C3.34379 5.4 4.01601 5.11554 4.51164 4.60919C5.00727 4.10284 5.28571 3.41608 5.28571 2.7C5.28571 1.98392 5.00727 1.29716 4.51164 0.790812C4.01601 0.284463 3.34379 0 2.64286 0C1.94193 0 1.26971 0.284463 0.774075 0.790812C0.278443 1.29716 0 1.98392 0 2.7C0 3.41608 0.278443 4.10284 0.774075 4.60919C1.26971 5.11554 1.94193 5.4 2.64286 5.4ZM2.64286 16.2C3.34379 16.2 4.01601 15.9155 4.51164 15.4092C5.00727 14.9028 5.28571 14.2161 5.28571 13.5C5.28571 12.7839 5.00727 12.0972 4.51164 11.5908C4.01601 11.0845 3.34379 10.8 2.64286 10.8C1.94193 10.8 1.26971 11.0845 0.774075 11.5908C0.278443 12.0972 0 12.7839 0 13.5C0 14.2161 0.278443 14.9028 0.774075 15.4092C1.26971 15.9155 1.94193 16.2 2.64286 16.2ZM2.64286 27C3.34379 27 4.01601 26.7155 4.51164 26.2092C5.00727 25.7028 5.28571 25.0161 5.28571 24.3C5.28571 23.5839 5.00727 22.8972 4.51164 22.3908C4.01601 21.8845 3.34379 21.6 2.64286 21.6C1.94193 21.6 1.26971 21.8845 0.774075 22.3908C0.278443 22.8972 0 23.5839 0 24.3C0 25.0161 0.278443 25.7028 0.774075 26.2092C1.26971 26.7155 1.94193 27 2.64286 27Z" fill="#9C9C9C"/>
</svg>
