<svg width="14" height="12" viewBox="0 0 14 12" fill="none" xmlns="http://www.w3.org/2000/svg">
<path d="M0.252767 0.263432C0.172739 0.341842 0.109162 0.435433 0.0657589 0.538723C0.022356 0.642014 0 0.752926 0 0.864964C0 0.977003 0.022356 1.08792 0.0657589 1.19121C0.109162 1.2945 0.172739 1.38809 0.252767 1.4665L4.97981 6.0181L0.272818 10.5697C0.125134 10.7296 0.044254 10.94 0.0467705 11.1577C0.0492871 11.3753 0.13501 11.5838 0.286351 11.7403C0.437692 11.8967 0.643176 11.9894 0.860643 11.9991C1.07811 12.0089 1.29107 11.9351 1.45583 11.7928L7.43106 6.0181L1.45583 0.238368C1.37543 0.160568 1.28042 0.0994641 1.17628 0.058583C1.07214 0.0177019 0.96093 -0.00214649 0.849076 0.000183797C0.737222 0.00251409 0.626938 0.0269768 0.524589 0.0721598C0.422241 0.117343 0.329855 0.182351 0.252767 0.263432Z" fill="#BCBCBC"/>
<path d="M6.26809 0.263432C6.18807 0.341842 6.12449 0.435433 6.08109 0.538723C6.03768 0.642014 6.01533 0.752926 6.01533 0.864964C6.01533 0.977003 6.03768 1.08792 6.08109 1.19121C6.12449 1.2945 6.18807 1.38809 6.26809 1.4665L10.9951 6.0181L6.28815 10.5697C6.14046 10.7296 6.05958 10.94 6.0621 11.1577C6.06462 11.3753 6.15034 11.5838 6.30168 11.7403C6.45302 11.8967 6.6585 11.9894 6.87597 11.9991C7.09344 12.0089 7.3064 11.9351 7.47116 11.7928L13.4464 6.0181L7.47116 0.238368C7.39076 0.160568 7.29575 0.0994641 7.19161 0.058583C7.08747 0.0177019 6.97626 -0.00214649 6.8644 0.000183797C6.75255 0.00251409 6.64227 0.0269768 6.53992 0.0721598C6.43757 0.117343 6.34518 0.182351 6.26809 0.263432Z" fill="#BCBCBC"/>
</svg>
